<?xml version="1.0" encoding="utf-8"?>
<!-- Generator: Adobe Illustrator 16.0.4, SVG Export Plug-In . SVG Version: 6.00 Build 0)  -->
<!DOCTYPE svg PUBLIC "-//W3C//DTD SVG 1.1//EN" "http://www.w3.org/Graphics/SVG/1.1/DTD/svg11.dtd">
<svg version="1.1" id="Layer_1" xmlns="http://www.w3.org/2000/svg" xmlns:xlink="http://www.w3.org/1999/xlink" x="0px" y="0px"
	 width="1111.444px" height="325.483px" viewBox="0 0 1111.444 325.483" enable-background="new 0 0 1111.444 325.483"
	 xml:space="preserve">
<path d="M70.912,232.762H24.396V251.2h42.731v15.509H24.396v22.708h48.592v15.509H6.449v-87.669h64.463V232.762z"/>
<path d="M139.403,217.257h17.093v87.669h-18.314l-35.771-62.515h-0.245v62.515H85.073v-87.669h19.291l34.795,61.052h0.245V217.257z"
	/>
<path d="M213.266,257.674h36.626v47.252h-12.208l-1.832-10.989c-4.639,5.372-11.354,13.309-27.348,13.309
	c-21.122,0-40.29-15.14-40.29-45.912c0-23.929,13.308-46.519,42.854-46.396c26.86,0,37.481,17.459,38.458,29.546h-18.313
	c0-3.417-6.226-14.406-19.168-14.406c-13.064,0-25.15,9.035-25.15,31.501c0,23.933,13.063,30.157,25.516,30.157
	c4.03,0,17.459-1.586,21.244-19.291h-20.389V257.674z"/>
<path d="M329.616,232.762H283.1V251.2h42.731v15.509H283.1v22.708h48.592v15.509h-66.539v-87.669h64.463V232.762z"/>
<g>
	<path d="M363.061,289.052h43.586v15.874h-61.899v-87.669h18.313V289.052z"/>
</g>
<path fill="#F7323F" d="M465.409,237.404c0,4.515-3.418,7.937-8.058,10.866c-4.152-4.52-6.349-8.06-6.349-10.989
	c0-4.639,3.296-7.081,7.082-7.081C462.235,230.201,465.409,232.52,465.409,237.404z M487.752,285.754
	c5.86-7.691,8.913-14.529,10.011-26.371h-15.139c-0.611,6.716-2.319,10.989-4.518,14.407l-12.453-15.386
	c3.541-2.074,14.528-8.547,14.528-20.877c0-14.042-11.843-20.27-21.487-20.27c-13.674,0-23.319,8.179-23.319,20.147
	c0,7.568,4.273,14.165,7.936,18.315l-1.831,1.098c-14.528,8.789-16.849,17.094-16.849,25.519c0,13.062,10.622,24.908,27.349,24.908
	c13.186,0,19.9-4.639,25.028-9.769l5.982,7.449h20.633L487.752,285.754z M468.217,286.733c-2.93,2.684-7.936,6.105-13.552,6.105
	c-10.256,0-12.941-8.183-12.941-11.6c0-6.961,3.174-9.403,10.377-14.652L468.217,286.733z"/>
<path d="M566.811,217.257h19.046l-29.791,87.669h-17.458l-29.545-87.669h19.655l18.802,66.424h0.244L566.811,217.257z"/>
<path d="M607.808,261.091c0-24.543,13.919-30.649,23.809-30.649c9.889,0,23.807,6.105,23.807,30.649s-13.918,30.645-23.807,30.645
	C621.727,291.736,607.808,285.635,607.808,261.091z M589.494,261.091c0,41.147,30.522,46.154,42.122,46.154
	c11.598,0,42.12-5.007,42.12-46.154c0-41.15-30.522-46.153-42.12-46.153C620.017,214.938,589.494,219.941,589.494,261.091z
	 M627.464,193.201h-15.383v14.042h15.383V193.201z M651.271,193.201h-15.384v14.042h15.384V193.201z"/>
<path d="M704.663,289.052h43.587v15.874h-61.9v-87.669h18.313V289.052z"/>
<path d="M779.747,304.926h-18.313v-87.669h18.313v35.652l33.452-35.652h23.686l-35.771,35.898l37.847,51.771h-23.562l-27.104-38.462
	l-8.546,8.793V304.926z"/>
<path d="M911.846,232.762h-46.517V251.2h42.732v15.509h-42.732v22.708h48.592v15.509h-66.539v-87.669h64.464V232.762z"/>
<path d="M945.908,255.843v-23.446h22.831c10.743,0,12.818,6.839,12.818,11.477c0,8.67-4.64,11.969-14.162,11.969H945.908z
	 M927.961,304.926h17.947v-34.312h18.924c13.551,0,14.284,4.643,14.284,16.607c0,9.035,0.733,13.554,1.952,17.705h20.269v-2.319
	c-3.907-1.467-3.907-4.642-3.907-17.463c0-16.361-3.907-19.045-11.11-22.221c8.668-2.93,13.552-11.235,13.552-20.88
	c0-7.568-4.273-24.786-27.592-24.786h-44.318V304.926z"/>
<path d="M1028.316,277.94c0.121,4.884,2.562,14.165,18.558,14.165c8.668,0,18.313-2.077,18.313-11.354
	c0-6.839-6.593-8.67-15.872-10.871l-9.401-2.196c-14.163-3.298-27.836-6.47-27.836-25.765c0-9.768,5.249-26.981,33.697-26.981
	c26.859,0,34.062,17.582,34.184,28.326h-17.58c-0.488-3.905-1.953-13.186-17.947-13.186c-6.96,0-15.261,2.564-15.261,10.501
	c0,6.834,5.615,8.301,9.278,9.158l21.366,5.249c11.965,2.93,22.952,7.814,22.952,23.564c0,26.375-26.859,28.694-34.552,28.694
	c-31.987,0-37.481-18.438-37.481-29.305H1028.316z"/>
<g>
	<g>
		<path d="M1091.424,209.271v-4.73h4.478c0.628,0,1.129,0.096,1.505,0.284c0.701,0.357,1.053,1.029,1.053,2.016
			c0,0.917-0.252,1.551-0.753,1.904c-0.501,0.354-1.183,0.526-2.045,0.526H1091.424z M1089.52,216.827h1.904v-5.99h4.178
			c0.751,0,1.302,0.088,1.653,0.257c0.616,0.311,0.946,0.921,0.988,1.835l0.123,2.331c0.02,0.545,0.048,0.91,0.085,1.102
			c0.034,0.188,0.082,0.346,0.142,0.465h2.323v-0.308c-0.29-0.126-0.491-0.415-0.604-0.86c-0.069-0.261-0.113-0.661-0.133-1.198
			l-0.062-1.866c-0.032-0.811-0.188-1.394-0.464-1.755c-0.279-0.361-0.689-0.649-1.233-0.872c0.618-0.323,1.103-0.749,1.452-1.279
			c0.347-0.534,0.521-1.217,0.521-2.05c0-1.601-0.643-2.699-1.928-3.294c-0.68-0.307-1.543-0.465-2.592-0.465h-6.354V216.827z"/>
	</g>
	<path fill="none" stroke="#000000" stroke-width="1.1349" stroke-miterlimit="3.8637" d="M1083.728,210.088
		c0.121-6.009,4.905-10.797,10.852-10.851c5.859,0.054,10.646,4.842,10.853,10.851c-0.207,5.794-4.993,10.582-10.853,10.378
		C1088.633,220.67,1083.849,215.882,1083.728,210.088L1083.728,210.088z"/>
</g>
<path fill="none" stroke="#000000" stroke-width="0.983" stroke-miterlimit="3.8637" d="M502.714,95.438L502.714,95.438
	L502.714,95.438z"/>
<line fill="none" stroke="#000000" stroke-width="0.983" stroke-miterlimit="3.8637" x1="387.589" y1="76.085" x2="700.68" y2="76.104"/>
<line fill="none" stroke="#000000" stroke-width="2.3591" stroke-miterlimit="3.8637" x1="387.589" y1="140.274" x2="387.589" y2="76.085"/>
<g>
	
		<line fill="none" stroke="#000000" stroke-width="1.3762" stroke-miterlimit="3.8637" x1="476.238" y1="76.085" x2="476.134" y2="143.572"/>
	
		<line fill="none" stroke="#000000" stroke-width="1.3762" stroke-miterlimit="3.8637" x1="485.202" y1="76.085" x2="485.202" y2="140.274"/>
	
		<line fill="none" stroke="#000000" stroke-width="1.3762" stroke-miterlimit="3.8637" x1="604.116" y1="76.085" x2="604.116" y2="140.274"/>
	
		<line fill="none" stroke="#000000" stroke-width="1.3762" stroke-miterlimit="3.8637" x1="613.082" y1="76.558" x2="613.082" y2="143.572"/>
</g>
<polyline fill="none" stroke="#000000" stroke-width="0.983" stroke-miterlimit="3.8637" points="469.569,147.165 469.569,143.58 
	619.625,143.58 619.625,147.115 "/>
<polyline fill="none" stroke="#000000" stroke-width="0.983" stroke-miterlimit="3.8637" points="465.322,150.545 465.322,147.354 
	623.871,147.354 623.895,151.141 "/>
<path fill="none" stroke="#000000" stroke-width="0.983" stroke-miterlimit="3.8637" d="M470.523,70.229h148.17
	c0,0-0.561,5.852-5.191,5.852c-4.635,0-132.482,0-137.131,0C470.818,76.082,470.523,70.229,470.523,70.229z"/>
<line fill="none" stroke="#000000" stroke-width="0.983" stroke-miterlimit="3.8637" x1="700.094" y1="140.274" x2="388.096" y2="140.274"/>
<polyline fill="none" stroke="#000000" stroke-width="2.3591" stroke-miterlimit="3.8637" points="623.572,150.321 704.2,150.3 
	704.172,139.573 699.994,139.573 "/>
<line fill="none" stroke="#000000" stroke-width="0.983" stroke-miterlimit="3.8637" x1="465.473" y1="150.983" x2="623.783" y2="150.945"/>
<polyline fill="none" stroke="#000000" stroke-width="2.3591" stroke-miterlimit="3.8637" points="388.151,139.614 384.246,139.614 
	384.287,150.321 465.494,150.292 "/>
<path fill="none" stroke="#000000" stroke-width="0.983" stroke-miterlimit="3.8637" d="M703.729,150.188"/>
<path fill="none" stroke="#000000" stroke-width="0.983" stroke-miterlimit="3.8637" d="M623.988,150.188"/>
<line fill="none" stroke="#000000" stroke-width="0.983" stroke-miterlimit="3.8637" x1="632.01" y1="132.253" x2="659.848" y2="132.253"/>
<path fill="none" stroke="#000000" stroke-width="0.983" stroke-miterlimit="3.8637" d="M659.879,97.323
	c0.833-0.326,1.873-0.071,2.361-0.942c0,0-0.016-5.165,0-6.608c0.011-1.442,0.687-2.118,1.179-2.67
	c0.491-0.553,2.596-2.048,2.596-2.048h-40.106c0,0,2.185,1.925,2.492,2.325c0.307,0.399,1.229,1.137,1.282,2.394
	c0.008,1.2-0.073,5.656,0,6.608c0.069,0.952,1.517,0.616,2.357,0.942"/>
<polyline fill="none" stroke="#000000" stroke-width="0.983" stroke-miterlimit="3.8637" points="632.01,140.274 632.01,88.83 
	659.848,88.83 659.848,140.274 "/>
<line fill="none" stroke="#000000" stroke-width="0.983" stroke-miterlimit="3.8637" x1="644.017" y1="111.012" x2="635.101" y2="111.012"/>
<line fill="none" stroke="#000000" stroke-width="0.983" stroke-miterlimit="3.8637" x1="644.253" y1="119.981" x2="635.337" y2="119.981"/>
<line fill="none" stroke="#000000" stroke-width="0.983" stroke-miterlimit="3.8637" x1="644.253" y1="102.044" x2="635.337" y2="102.044"/>
<line fill="none" stroke="#000000" stroke-width="0.983" stroke-miterlimit="3.8637" x1="656.757" y1="111.012" x2="647.841" y2="111.012"/>
<line fill="none" stroke="#000000" stroke-width="0.983" stroke-miterlimit="3.8637" x1="656.757" y1="119.981" x2="647.841" y2="119.981"/>
<line fill="none" stroke="#000000" stroke-width="0.983" stroke-miterlimit="3.8637" x1="656.757" y1="102.044" x2="647.841" y2="102.044"/>
<polygon fill="none" stroke="#000000" stroke-width="0.983" stroke-miterlimit="3.8637" points="635.312,92.8 644.277,92.8 
	644.277,129.141 635.312,129.141 635.312,92.8 "/>
<polygon fill="none" stroke="#000000" stroke-width="0.983" stroke-miterlimit="3.8637" points="648.052,93.076 656.546,93.076 
	656.546,129.419 648.052,129.419 648.052,93.076 "/>
<g>
	
		<line fill="none" stroke="#000000" stroke-width="1.3762" stroke-miterlimit="3.8637" x1="520.556" y1="76.085" x2="520.556" y2="140.274"/>
	
		<line fill="none" stroke="#000000" stroke-width="1.3762" stroke-miterlimit="3.8637" x1="526.69" y1="76.558" x2="526.69" y2="140.274"/>
	
		<line fill="none" stroke="#000000" stroke-width="1.3762" stroke-miterlimit="3.8637" x1="562.557" y1="76.085" x2="562.557" y2="140.274"/>
	
		<line fill="none" stroke="#000000" stroke-width="1.3762" stroke-miterlimit="3.8637" x1="568.688" y1="76.085" x2="568.688" y2="140.274"/>
	<path fill-rule="evenodd" clip-rule="evenodd" stroke="#000000" stroke-width="0.983" stroke-miterlimit="3.8637" d="
		M523.586,76.458l-6.406-0.012c0,0-0.027,0.695,0.472,1.417c0.499,0.72,2.358,1.887,2.358,1.887l3.326,0.015v0.004h0.25h0.253
		v-0.004l3.324-0.015c0,0,1.862-1.167,2.362-1.887c0.499-0.722,0.472-1.417,0.472-1.417L523.586,76.458z"/>
	<path fill-rule="evenodd" clip-rule="evenodd" stroke="#000000" stroke-width="0.983" stroke-miterlimit="3.8637" d="
		M565.632,76.458l-6.408-0.012c0,0-0.027,0.695,0.473,1.417c0.499,0.72,2.361,1.887,2.361,1.887l3.321,0.015v0.004h0.253h0.25
		v-0.004l3.325-0.015c0,0,1.858-1.167,2.357-1.887c0.499-0.722,0.473-1.417,0.473-1.417L565.632,76.458z"/>
	<polygon stroke="#000000" stroke-width="0.983" stroke-miterlimit="3.8637" points="559.484,137.444 571.522,137.444 
		571.522,139.804 559.484,139.804 559.484,137.444 	"/>
	<polygon stroke="#000000" stroke-width="0.983" stroke-miterlimit="3.8637" points="517.745,137.444 529.782,137.444 
		529.782,139.804 517.745,139.804 517.745,137.444 	"/>
</g>
<rect x="591.903" y="18.239" fill="none" stroke="#000000" stroke-width="0.983" stroke-miterlimit="3.8637" width="8.966" height="8.275"/>
<rect x="488.054" y="18.239" fill="none" stroke="#000000" stroke-width="0.983" stroke-miterlimit="3.8637" width="8.966" height="8.275"/>
<line fill="none" stroke="#000000" stroke-width="2.3591" stroke-miterlimit="3.8637" x1="700.426" y1="140.274" x2="700.426" y2="75.579"/>
<path fill="none" stroke="#000000" stroke-width="0.983" stroke-miterlimit="3.8637" d="M503.19,95.583L503.19,95.583L503.19,95.583
	z"/>
<path fill="none" stroke="#000000" stroke-width="0.983" stroke-miterlimit="3.8637" d="M586.72,95.583L586.72,95.583L586.72,95.583
	z"/>
<g>
	<g>
		<path fill="none" stroke="#000000" stroke-width="0.983" stroke-miterlimit="3.8637" d="M495.76,95.583
			c0.178-3.861,3.211-6.896,7.078-7.081c3.618,0.185,6.652,3.22,6.606,7.081"/>
		
			<line fill="none" stroke="#000000" stroke-width="0.983" stroke-miterlimit="3.8637" x1="502.602" y1="95.583" x2="502.602" y2="83.312"/>
		
			<line fill="none" stroke="#000000" stroke-width="0.983" stroke-miterlimit="3.8637" x1="511.573" y1="87.086" x2="507.797" y2="90.862"/>
		
			<line fill="none" stroke="#000000" stroke-width="0.983" stroke-miterlimit="3.8637" x1="494.581" y1="87.086" x2="498.355" y2="90.862"/>
		<path fill="none" stroke="#000000" stroke-width="0.983" stroke-miterlimit="3.8637" d="M517.661,95.549
			c-0.096-8.29-6.691-14.889-15.107-15.025c-7.789,0.136-14.309,6.858-14.533,14.983"/>
		<path fill="none" stroke="#000000" stroke-width="0.983" stroke-miterlimit="3.8637" d="M502.604,83.312
			c-6.393,0.111-11.613,5.614-11.798,12.272h24.069C514.795,88.925,509.437,83.423,502.604,83.312z"/>
		<polygon fill="none" stroke="#000000" stroke-width="0.983" stroke-miterlimit="3.8637" points="490.806,98.886 501.186,98.886 
			501.186,129.093 490.806,129.093 490.806,98.886 		"/>
		
			<line fill="none" stroke="#000000" stroke-width="0.983" stroke-miterlimit="3.8637" x1="490.806" y1="113.989" x2="501.186" y2="113.989"/>
		
			<line fill="none" stroke="#000000" stroke-width="0.983" stroke-miterlimit="3.8637" x1="490.806" y1="106.438" x2="501.186" y2="106.438"/>
		
			<line fill="none" stroke="#000000" stroke-width="0.983" stroke-miterlimit="3.8637" x1="490.806" y1="120.6" x2="501.186" y2="120.6"/>
		
			<line fill="none" stroke="#000000" stroke-width="0.983" stroke-miterlimit="3.8637" x1="495.998" y1="98.886" x2="495.998" y2="129.093"/>
		<polygon fill="none" stroke="#000000" stroke-width="0.983" stroke-miterlimit="3.8637" points="504.49,98.886 514.875,98.886 
			514.875,129.093 504.49,129.093 504.49,98.886 		"/>
		
			<line fill="none" stroke="#000000" stroke-width="0.983" stroke-miterlimit="3.8637" x1="504.492" y1="113.989" x2="514.874" y2="113.989"/>
		
			<line fill="none" stroke="#000000" stroke-width="0.983" stroke-miterlimit="3.8637" x1="504.492" y1="106.438" x2="514.874" y2="106.438"/>
		
			<line fill="none" stroke="#000000" stroke-width="0.983" stroke-miterlimit="3.8637" x1="504.492" y1="120.6" x2="514.874" y2="120.6"/>
		
			<line fill="none" stroke="#000000" stroke-width="0.983" stroke-miterlimit="3.8637" x1="509.683" y1="98.886" x2="509.683" y2="129.093"/>
		
			<line fill="none" stroke="#000000" stroke-width="0.983" stroke-miterlimit="3.8637" x1="488.015" y1="140.42" x2="488.015" y2="95.111"/>
		
			<line fill="none" stroke="#000000" stroke-width="0.983" stroke-miterlimit="3.8637" x1="517.676" y1="140.42" x2="517.676" y2="95.111"/>
	</g>
	<g>
		<path fill="none" stroke="#000000" stroke-width="0.983" stroke-miterlimit="3.8637" d="M579.53,95.583
			c0.177-3.861,3.21-6.896,7.076-7.081c3.617,0.185,6.65,3.22,6.604,7.081"/>
		
			<line fill="none" stroke="#000000" stroke-width="0.983" stroke-miterlimit="3.8637" x1="586.372" y1="95.583" x2="586.372" y2="83.312"/>
		
			<line fill="none" stroke="#000000" stroke-width="0.983" stroke-miterlimit="3.8637" x1="595.101" y1="87.086" x2="591.326" y2="90.862"/>
		
			<line fill="none" stroke="#000000" stroke-width="0.983" stroke-miterlimit="3.8637" x1="578.113" y1="87.086" x2="581.888" y2="90.862"/>
		<path fill="none" stroke="#000000" stroke-width="0.983" stroke-miterlimit="3.8637" d="M601.187,95.549
			c-0.097-8.29-6.689-14.889-15.102-15.025c-7.787,0.136-14.308,6.858-14.534,14.983"/>
		<path fill="none" stroke="#000000" stroke-width="0.983" stroke-miterlimit="3.8637" d="M586.137,83.312
			c-6.394,0.111-11.611,5.614-11.796,12.272h24.063C598.323,88.925,592.967,83.423,586.137,83.312z"/>
		<polygon fill="none" stroke="#000000" stroke-width="0.983" stroke-miterlimit="3.8637" points="574.339,98.886 584.718,98.886 
			584.718,129.093 574.339,129.093 574.339,98.886 		"/>
		
			<line fill="none" stroke="#000000" stroke-width="0.983" stroke-miterlimit="3.8637" x1="574.339" y1="113.989" x2="584.718" y2="113.989"/>
		
			<line fill="none" stroke="#000000" stroke-width="0.983" stroke-miterlimit="3.8637" x1="574.339" y1="106.438" x2="584.718" y2="106.438"/>
		
			<line fill="none" stroke="#000000" stroke-width="0.983" stroke-miterlimit="3.8637" x1="574.339" y1="120.6" x2="584.718" y2="120.6"/>
		
			<line fill="none" stroke="#000000" stroke-width="0.983" stroke-miterlimit="3.8637" x1="579.53" y1="98.886" x2="579.53" y2="129.093"/>
		<polygon fill="none" stroke="#000000" stroke-width="0.983" stroke-miterlimit="3.8637" points="588.02,98.886 598.402,98.886 
			598.402,129.093 588.02,129.093 588.02,98.886 		"/>
		
			<line fill="none" stroke="#000000" stroke-width="0.983" stroke-miterlimit="3.8637" x1="588.02" y1="113.989" x2="598.402" y2="113.989"/>
		
			<line fill="none" stroke="#000000" stroke-width="0.983" stroke-miterlimit="3.8637" x1="588.02" y1="106.438" x2="598.402" y2="106.438"/>
		
			<line fill="none" stroke="#000000" stroke-width="0.983" stroke-miterlimit="3.8637" x1="588.02" y1="120.6" x2="598.402" y2="120.6"/>
		
			<line fill="none" stroke="#000000" stroke-width="0.983" stroke-miterlimit="3.8637" x1="593.211" y1="98.886" x2="593.211" y2="129.093"/>
		
			<line fill="none" stroke="#000000" stroke-width="0.983" stroke-miterlimit="3.8637" x1="571.547" y1="140.42" x2="571.547" y2="95.111"/>
		
			<line fill="none" stroke="#000000" stroke-width="0.983" stroke-miterlimit="3.8637" x1="601.201" y1="140.42" x2="601.201" y2="95.111"/>
	</g>
</g>
<line fill="none" stroke="#000000" stroke-width="0.983" stroke-miterlimit="3.8637" x1="427.695" y1="132.399" x2="455.534" y2="132.399"/>
<path fill="none" stroke="#000000" stroke-width="0.983" stroke-miterlimit="3.8637" d="M455.534,97.469
	c0.837-0.326,1.877-0.071,2.361-0.942c0,0-0.015-5.165,0-6.608c0.015-1.442,0.691-2.118,1.183-2.67
	c0.492-0.553,2.592-2.049,2.592-2.049h-40.106c0,0,2.187,1.926,2.494,2.325s1.229,1.137,1.281,2.394c0.01,1.2-0.071,5.656,0,6.608
	c0.071,0.954,1.517,0.616,2.357,0.942"/>
<polyline fill="none" stroke="#000000" stroke-width="0.983" stroke-miterlimit="3.8637" points="427.695,140.42 427.695,88.975 
	455.534,88.975 455.534,140.42 "/>
<line fill="none" stroke="#000000" stroke-width="0.983" stroke-miterlimit="3.8637" x1="439.94" y1="111.157" x2="431.023" y2="111.157"/>
<line fill="none" stroke="#000000" stroke-width="0.983" stroke-miterlimit="3.8637" x1="439.94" y1="120.127" x2="431.023" y2="120.127"/>
<line fill="none" stroke="#000000" stroke-width="0.983" stroke-miterlimit="3.8637" x1="439.941" y1="102.19" x2="431.024" y2="102.19"/>
<line fill="none" stroke="#000000" stroke-width="0.983" stroke-miterlimit="3.8637" x1="452.209" y1="111.157" x2="443.292" y2="111.157"/>
<line fill="none" stroke="#000000" stroke-width="0.983" stroke-miterlimit="3.8637" x1="452.208" y1="120.127" x2="443.292" y2="120.127"/>
<line fill="none" stroke="#000000" stroke-width="0.983" stroke-miterlimit="3.8637" x1="452.208" y1="102.19" x2="443.292" y2="102.19"/>
<polygon fill="none" stroke="#000000" stroke-width="0.983" stroke-miterlimit="3.8637" points="431,93.222 439.963,93.222 
	439.963,129.565 431,129.565 431,93.222 "/>
<polygon fill="none" stroke="#000000" stroke-width="0.983" stroke-miterlimit="3.8637" points="443.27,93.222 452.231,93.222 
	452.231,129.565 443.27,129.565 443.27,93.222 "/>
<path fill="none" stroke="#000000" stroke-width="0.983" stroke-miterlimit="3.8637" d="M537.765,95.583
	c0.178-3.861,3.212-6.896,7.08-7.081c3.618,0.185,6.651,3.22,6.605,7.081"/>
<line fill="none" stroke="#000000" stroke-width="0.983" stroke-miterlimit="3.8637" x1="544.608" y1="95.583" x2="544.608" y2="83.312"/>
<line fill="none" stroke="#000000" stroke-width="0.983" stroke-miterlimit="3.8637" x1="553.103" y1="87.086" x2="549.329" y2="90.862"/>
<line fill="none" stroke="#000000" stroke-width="0.983" stroke-miterlimit="3.8637" x1="536.112" y1="87.086" x2="539.888" y2="90.862"/>
<path fill="none" stroke="#000000" stroke-width="0.983" stroke-miterlimit="3.8637" d="M544.962,95.583L544.962,95.583
	L544.962,95.583z"/>
<path fill="none" stroke="#000000" stroke-width="0.983" stroke-miterlimit="3.8637" d="M559.429,95.549
	c-0.096-8.29-6.688-14.889-15.103-15.025c-7.79,0.136-14.312,6.858-14.539,14.983"/>
<path fill="none" stroke="#000000" stroke-width="0.983" stroke-miterlimit="3.8637" d="M544.373,83.312
	c-6.395,0.111-11.615,5.614-11.799,12.272h24.07C556.562,88.925,551.206,83.423,544.373,83.312z"/>
<line fill="none" stroke="#000000" stroke-width="0.983" stroke-miterlimit="3.8637" x1="529.778" y1="140.42" x2="529.778" y2="95.111"/>
<line fill="none" stroke="#000000" stroke-width="0.983" stroke-miterlimit="3.8637" x1="559.438" y1="140.42" x2="559.438" y2="95.111"/>
<g>
	<polygon fill="none" stroke="#000000" stroke-width="0.983" stroke-miterlimit="3.8637" points="532.574,98.886 542.956,98.886 
		542.967,129.187 532.574,129.093 532.574,98.886 	"/>
	
		<line fill="none" stroke="#000000" stroke-width="0.983" stroke-miterlimit="3.8637" x1="532.574" y1="113.989" x2="542.956" y2="113.989"/>
	
		<line fill="none" stroke="#000000" stroke-width="0.983" stroke-miterlimit="3.8637" x1="532.574" y1="106.438" x2="542.956" y2="106.438"/>
	
		<line fill="none" stroke="#000000" stroke-width="0.983" stroke-miterlimit="3.8637" x1="532.574" y1="120.6" x2="542.956" y2="120.6"/>
	
		<line fill="none" stroke="#000000" stroke-width="0.983" stroke-miterlimit="3.8637" x1="537.766" y1="98.886" x2="537.766" y2="129.093"/>
	<polygon fill="none" stroke="#000000" stroke-width="0.983" stroke-miterlimit="3.8637" points="546.259,98.886 556.642,98.886 
		556.642,129.093 546.259,129.093 546.259,98.886 	"/>
	
		<line fill="none" stroke="#000000" stroke-width="0.983" stroke-miterlimit="3.8637" x1="546.259" y1="113.989" x2="556.642" y2="113.989"/>
	
		<line fill="none" stroke="#000000" stroke-width="0.983" stroke-miterlimit="3.8637" x1="546.259" y1="106.438" x2="556.642" y2="106.438"/>
	
		<line fill="none" stroke="#000000" stroke-width="0.983" stroke-miterlimit="3.8637" x1="546.259" y1="120.6" x2="556.642" y2="120.6"/>
	
		<line fill="none" stroke="#000000" stroke-width="0.983" stroke-miterlimit="3.8637" x1="551.45" y1="98.886" x2="551.45" y2="129.093"/>
	
		<line fill="none" stroke="#000000" stroke-width="0.983" stroke-miterlimit="3.8637" x1="542.967" y1="128.901" x2="542.967" y2="140.147"/>
	
		<line fill="none" stroke="#000000" stroke-width="0.983" stroke-miterlimit="3.8637" x1="546.309" y1="128.901" x2="546.309" y2="140.147"/>
</g>
<path fill="none" d="M519.868,57.969c0.718,0,6.776-0.015,7.485-0.015s1.134-0.553,1.134-1.183s-0.353-1.198-1.148-1.198
	c-0.791,0-6.653,0.016-7.433,0.016c-0.783,0-1.175,0.522-1.175,1.167C518.732,57.401,519.148,57.969,519.868,57.969z"/>
<rect x="521.359" y="59.145" fill="none" width="4.739" height="6.608"/>
<path fill="none" d="M531.207,57.958c0.961-0.012,26.023-0.004,26.899-0.004c0.875,0,1.413-0.461,1.413-1.152
	c0-0.691-0.431-1.198-1.429-1.198s-25.927-0.031-26.884-0.007c-0.96,0.027-1.428,0.499-1.425,1.175
	C529.79,57.449,530.243,57.969,531.207,57.958z"/>
<rect x="485.852" y="59.145" fill="none" width="34.001" height="6.608"/>
<circle fill="none" cx="480.557" cy="41.078" r="0.856"/>
<path fill="none" d="M489.395,57.958c0.961-0.012,26.03-0.004,26.905-0.004s1.413-0.461,1.413-1.152c0-0.691-0.43-1.198-1.429-1.198
	c-0.998,0-25.931-0.031-26.89-0.007c-0.959,0.027-1.428,0.499-1.421,1.175C487.979,57.449,488.435,57.969,489.395,57.958z"/>
<polygon fill="none" points="527.612,59.145 527.612,65.752 544.614,65.752 561.612,65.752 561.612,59.145 544.614,59.145 "/>
<rect x="563.125" y="59.145" fill="none" width="4.734" height="6.608"/>
<path fill="none" d="M476.289,45.362c0.286,0.242,0.945,0.591,1.289,0.917c0.345,0.327,0.403,3.915,0.625,4.249
	c0.225,0.336,1.665,0.96,2.36,0.945c0.697-0.017,2.092-0.555,2.359-0.945c0.267-0.388,0.413-3.736,0.678-4.156
	s0.885-0.766,1.208-1.033c0.321-0.265,1.075-0.955,0.747-1.384c-0.329-0.43-1.34,0-1.82-0.035c-0.482-0.035-1.54-0.449-1.912-0.822
	c-0.375-0.373-0.791-0.614-1.259-0.595c-0.469,0.023-0.914,0.441-1.244,0.641c-0.329,0.196-1.465,0.757-1.801,0.788
	c-0.336,0.03-1.557-0.526-1.976-0.02C475.126,44.415,476.005,45.12,476.289,45.362z"/>
<path fill="none" d="M561.674,57.969c0.718,0,6.769-0.015,7.479-0.015c0.706,0,1.133-0.553,1.133-1.183s-0.354-1.198-1.148-1.198
	c-0.791,0-6.646,0.016-7.43,0.016c-0.779,0-1.171,0.522-1.171,1.167C560.537,57.401,560.951,57.969,561.674,57.969z"/>
<circle fill="none" cx="608.749" cy="53.358" r="1.317"/>
<path fill="none" d="M573.001,57.958c0.964-0.012,26.018-0.004,26.894-0.004c0.875,0,1.413-0.461,1.413-1.152
	c0-0.691-0.431-1.198-1.429-1.198s-25.918-0.031-26.878-0.007c-0.956,0.027-1.425,0.499-1.421,1.175
	C571.588,57.449,572.041,57.969,573.001,57.958z"/>
<path fill="none" d="M604.475,45.362c0.284,0.242,0.941,0.591,1.286,0.917c0.346,0.327,0.403,3.915,0.626,4.249
	c0.223,0.336,1.663,0.96,2.358,0.945c0.694-0.017,2.092-0.555,2.357-0.945c0.269-0.388,0.414-3.736,0.68-4.156
	c0.265-0.42,0.883-0.766,1.205-1.033c0.323-0.265,1.075-0.955,0.745-1.384c-0.326-0.43-1.336,0-1.816-0.035
	c-0.483-0.035-1.539-0.449-1.912-0.822c-0.372-0.373-0.791-0.614-1.259-0.595c-0.469,0.023-0.914,0.441-1.244,0.641
	c-0.327,0.196-1.463,0.757-1.801,0.788c-0.334,0.03-1.556-0.526-1.974-0.02C603.308,44.415,604.187,45.12,604.475,45.362z"/>
<circle fill="none" cx="480.567" cy="53.358" r="1.317"/>
<rect x="604.901" y="59.145" fill="none" width="7.525" height="6.608"/>
<path fill="none" d="M613.279,66.724c-0.994,0-8.366,0.015-9.35,0.015s-1.475,0.522-1.475,1.167s0.522,1.213,1.429,1.213
	s8.524-0.016,9.411-0.016c0.891,0,1.429-0.553,1.429-1.183C614.724,67.292,614.277,66.724,613.279,66.724z"/>
<path fill="none" d="M599.879,66.945c-0.998,0-25.918-0.031-26.878-0.004c-0.956,0.023-1.425,0.496-1.421,1.171
	c0.008,0.678,0.461,1.198,1.421,1.187c0.964-0.012,26.018-0.004,26.894-0.004c0.875,0,1.413-0.461,1.413-1.152
	C601.308,67.452,600.877,66.945,599.879,66.945z"/>
<path fill="none" d="M613.279,55.573c-0.994,0-8.366,0.016-9.35,0.016s-1.475,0.522-1.475,1.167c0,0.646,0.522,1.213,1.429,1.213
	s8.524-0.015,9.411-0.015c0.891,0,1.429-0.553,1.429-1.183S614.277,55.573,613.279,55.573z"/>
<path fill="none" d="M608.741,41.935c0.472,0,0.855-0.384,0.855-0.856c0-0.474-0.384-0.856-0.855-0.856
	c-0.477,0-0.856,0.382-0.856,0.856C607.885,41.551,608.265,41.935,608.741,41.935z"/>
<path fill="none" d="M569.138,66.914c-0.791,0-6.646,0.016-7.43,0.016c-0.779,0-1.171,0.522-1.171,1.167s0.414,1.213,1.137,1.213
	c0.718,0,6.769-0.015,7.479-0.015c0.706,0,1.133-0.553,1.133-1.183C570.286,67.482,569.933,66.914,569.138,66.914z"/>
<path fill="none" d="M527.339,66.914c-0.791,0-6.653,0.016-7.433,0.016c-0.783,0-1.175,0.522-1.175,1.167s0.417,1.213,1.136,1.213
	c0.718,0,6.776-0.015,7.485-0.015s1.134-0.553,1.134-1.183C528.487,67.482,528.134,66.914,527.339,66.914z"/>
<path fill="none" d="M485.102,66.914c-0.999,0-8.371,0.016-9.354,0.016c-0.983,0-1.475,0.522-1.475,1.167s0.522,1.213,1.428,1.213
	s8.524-0.015,9.415-0.015c0.891,0,1.428-0.553,1.428-1.183C486.545,67.482,486.1,66.914,485.102,66.914z"/>
<path fill="none" d="M558.091,66.945c-0.998,0-25.927-0.031-26.884-0.004c-0.96,0.023-1.428,0.496-1.425,1.171
	c0.008,0.678,0.461,1.198,1.425,1.187c0.961-0.012,26.023-0.004,26.899-0.004c0.875,0,1.413-0.461,1.413-1.152
	C559.52,67.452,559.089,66.945,558.091,66.945z"/>
<path fill="none" d="M475.702,57.969c0.906,0,8.524-0.015,9.415-0.015c0.891,0,1.428-0.553,1.428-1.183s-0.445-1.198-1.443-1.198
	c-0.999,0-8.371,0.016-9.354,0.016c-0.983,0-1.475,0.522-1.475,1.167C474.273,57.401,474.795,57.969,475.702,57.969z"/>
<rect x="476.787" y="59.145" fill="none" width="7.524" height="6.608"/>
<path fill="none" d="M516.285,66.945c-0.998,0-25.931-0.031-26.89-0.004c-0.959,0.023-1.428,0.496-1.421,1.171
	c0.006,0.678,0.461,1.198,1.421,1.187c0.961-0.012,26.03-0.004,26.905-0.004s1.413-0.461,1.413-1.152
	C517.713,67.452,517.283,66.945,516.285,66.945z"/>
<rect x="569.368" y="59.145" fill="none" width="33.993" height="6.608"/>
<path fill="none" d="M544.251,38.325c-7.206,0.169-12.975,5.937-12.745,13.217h25.483C557.043,44.262,551.275,38.494,544.251,38.325
	z M537.484,42.722l-0.066-0.084L537.484,42.722c1.686-1.576,3.914-2.757,6.726-2.757c0.007,0,0.019,0.002,0.031,0.002v-0.094v0.094
	c2.762,0.01,5.027,1.187,6.77,2.755l0.016-0.023l-0.016,0.023c2.799,2.513,4.254,6.029,4.254,7.354h-21.718
	C533.546,48.646,534.837,45.197,537.484,42.722z"/>
<path fill="none" stroke="#000000" stroke-width="0.983" d="M547.221,47.521l-0.004,0.004L547.221,47.521
	c0.81,0.891,1.225,1.966,1.225,2.492c0,0.062-8.508,0-8.508,0c0-0.496,0.454-1.632,1.33-2.554l0.054,0.065l-0.054-0.065
	c0.707-0.747,1.689-1.35,2.942-1.35c0.007,0,0.019,0.002,0.031,0.002v3.686v-3.686C545.527,46.122,546.522,46.751,547.221,47.521z"
	/>
<path fill="none" stroke="#000000" stroke-width="0.983" d="M555.265,50.075h-21.718c0-1.429,1.291-4.878,3.938-7.354l3.783,4.738
	c-0.875,0.922-1.33,2.058-1.33,2.554c0,0,8.508,0.062,8.508,0c0-0.526-0.415-1.601-1.225-2.492l3.79-4.8
	C553.81,45.235,555.265,48.75,555.265,50.075z"/>
<path d="M544.251,38.325c7.024,0.169,12.792,5.937,12.738,13.217h-25.483C531.276,44.262,537.045,38.494,544.251,38.325z
	 M617.856,22.277h-16.987v4.249h-8.966v-4.249h-94.851v4.249h-8.964v-4.249h-16.515l-90.119,44.84
	c0.489,1.747,1.622,3.389,2.357,4.352c0,0.058,321.512-0.019,321.512-0.019s1.114-1.551,1.747-2.709
	c0.634-1.16,0.688-1.816,0.688-1.816L617.856,22.277z M608.741,40.222c0.472,0,0.855,0.382,0.855,0.856
	c0,0.472-0.384,0.856-0.855,0.856c-0.477,0-0.856-0.384-0.856-0.856C607.885,40.604,608.265,40.222,608.741,40.222z M603.727,43.912
	c0.418-0.507,1.64,0.05,1.974,0.02c0.338-0.031,1.474-0.592,1.801-0.788c0.33-0.2,0.775-0.618,1.244-0.641
	c0.468-0.019,0.887,0.223,1.259,0.595c0.373,0.373,1.429,0.787,1.912,0.822c0.48,0.035,1.49-0.396,1.816,0.035
	c0.33,0.43-0.422,1.119-0.745,1.384c-0.322,0.267-0.94,0.612-1.205,1.033c-0.266,0.42-0.411,3.769-0.68,4.156
	c-0.266,0.39-1.663,0.928-2.357,0.945c-0.695,0.015-2.136-0.608-2.358-0.945c-0.223-0.334-0.28-3.922-0.626-4.249
	c-0.345-0.326-1.002-0.676-1.286-0.917C604.187,45.12,603.308,44.415,603.727,43.912z M610.065,53.358
	c0,0.726-0.591,1.317-1.316,1.317c-0.727,0-1.317-0.591-1.317-1.317c0-0.729,0.591-1.321,1.317-1.321
	C609.475,52.037,610.065,52.628,610.065,53.358z M573.001,55.597c0.96-0.023,25.88,0.007,26.878,0.007s1.429,0.507,1.429,1.198
	c0,0.691-0.538,1.152-1.413,1.152c-0.876,0-25.93-0.008-26.894,0.004c-0.96,0.011-1.413-0.509-1.421-1.187
	C571.576,56.096,572.045,55.624,573.001,55.597z M603.361,59.145v6.608h-33.993v-6.608H603.361z M561.708,55.589
	c0.783,0,6.639-0.016,7.43-0.016c0.795,0,1.148,0.568,1.148,1.198s-0.427,1.183-1.133,1.183c-0.711,0-6.762,0.015-7.479,0.015
	c-0.723,0-1.137-0.568-1.137-1.213C560.537,56.111,560.929,55.589,561.708,55.589z M567.859,59.145v6.608h-4.734v-6.608H567.859z
	 M561.612,59.145v6.608h-16.998h-17.002v-6.608h17.002H561.612z M531.207,55.597c0.957-0.023,25.886,0.007,26.884,0.007
	s1.429,0.507,1.429,1.198c0,0.691-0.538,1.152-1.413,1.152c-0.876,0-25.938-0.008-26.899,0.004
	c-0.964,0.011-1.417-0.509-1.425-1.187C529.779,56.096,530.247,55.624,531.207,55.597z M519.907,55.589
	c0.779,0,6.642-0.016,7.433-0.016c0.795,0,1.148,0.568,1.148,1.198s-0.426,1.183-1.134,1.183s-6.767,0.015-7.485,0.015
	c-0.72,0-1.136-0.568-1.136-1.213C518.732,56.111,519.124,55.589,519.907,55.589z M526.098,59.145v6.608h-4.739v-6.608H526.098z
	 M519.853,59.145v6.608h-34.001v-6.608H519.853z M489.395,55.597c0.959-0.023,25.892,0.007,26.89,0.007
	c0.999,0,1.429,0.507,1.429,1.198c0,0.691-0.538,1.152-1.413,1.152s-25.944-0.008-26.905,0.004c-0.96,0.011-1.416-0.509-1.421-1.187
	C487.967,56.096,488.436,55.624,489.395,55.597z M480.557,40.222c0.474,0,0.856,0.382,0.856,0.856c0,0.472-0.382,0.856-0.856,0.856
	c-0.472,0-0.856-0.384-0.856-0.856C479.701,40.604,480.085,40.222,480.557,40.222z M475.542,43.912
	c0.418-0.507,1.64,0.05,1.976,0.02c0.336-0.031,1.472-0.592,1.801-0.788c0.33-0.2,0.775-0.618,1.244-0.641
	c0.468-0.019,0.885,0.223,1.259,0.595c0.373,0.373,1.43,0.787,1.912,0.822c0.48,0.035,1.492-0.396,1.82,0.035
	c0.328,0.43-0.426,1.119-0.747,1.384c-0.322,0.267-0.942,0.612-1.208,1.033s-0.411,3.769-0.678,4.156
	c-0.267,0.39-1.663,0.928-2.359,0.945c-0.695,0.015-2.135-0.608-2.36-0.945c-0.223-0.334-0.28-3.922-0.625-4.249
	c-0.344-0.326-1.002-0.676-1.289-0.917C476.005,45.12,475.126,44.415,475.542,43.912z M481.884,53.358
	c0,0.726-0.589,1.317-1.317,1.317c-0.728,0-1.317-0.591-1.317-1.317c0-0.729,0.589-1.321,1.317-1.321
	C481.294,52.037,481.884,52.628,481.884,53.358z M475.748,55.589c0.983,0,8.355-0.016,9.354-0.016c0.998,0,1.443,0.568,1.443,1.198
	s-0.537,1.183-1.428,1.183c-0.891,0-8.509,0.015-9.415,0.015s-1.428-0.568-1.428-1.213
	C474.273,56.111,474.765,55.589,475.748,55.589z M484.311,59.145v6.608h-7.524v-6.608H484.311z M485.117,69.295
	c-0.891,0-8.509,0.015-9.415,0.015s-1.428-0.568-1.428-1.213s0.491-1.167,1.475-1.167c0.983,0,8.355-0.016,9.354-0.016
	c0.998,0,1.443,0.568,1.443,1.198C486.545,68.742,486.008,69.295,485.117,69.295z M516.3,69.295c-0.875,0-25.944-0.008-26.905,0.004
	c-0.96,0.011-1.416-0.509-1.421-1.187c-0.007-0.676,0.462-1.148,1.421-1.171c0.959-0.027,25.892,0.004,26.89,0.004
	c0.999,0,1.429,0.507,1.429,1.198C517.713,68.834,517.176,69.295,516.3,69.295z M527.353,69.295c-0.708,0-6.767,0.015-7.485,0.015
	c-0.72,0-1.136-0.568-1.136-1.213s0.392-1.167,1.175-1.167c0.779,0,6.642-0.016,7.433-0.016c0.795,0,1.148,0.568,1.148,1.198
	C528.487,68.742,528.062,69.295,527.353,69.295z M558.106,69.295c-0.876,0-25.938-0.008-26.899,0.004
	c-0.964,0.011-1.417-0.509-1.425-1.187c-0.003-0.676,0.465-1.148,1.425-1.171c0.957-0.027,25.886,0.004,26.884,0.004
	s1.429,0.507,1.429,1.198C559.52,68.834,558.981,69.295,558.106,69.295z M569.153,69.295c-0.711,0-6.762,0.015-7.479,0.015
	c-0.723,0-1.137-0.568-1.137-1.213s0.392-1.167,1.171-1.167c0.783,0,6.639-0.016,7.43-0.016c0.795,0,1.148,0.568,1.148,1.198
	C570.286,68.742,569.859,69.295,569.153,69.295z M599.895,69.295c-0.876,0-25.93-0.008-26.894,0.004
	c-0.96,0.011-1.413-0.509-1.421-1.187c-0.004-0.676,0.465-1.148,1.421-1.171c0.96-0.027,25.88,0.004,26.878,0.004
	s1.429,0.507,1.429,1.198C601.308,68.834,600.77,69.295,599.895,69.295z M613.295,69.104c-0.887,0-8.505,0.016-9.411,0.016
	s-1.429-0.568-1.429-1.213s0.491-1.167,1.475-1.167s8.355-0.015,9.35-0.015c0.998,0,1.444,0.568,1.444,1.198
	C614.724,68.552,614.186,69.104,613.295,69.104z M604.901,65.752v-6.608h7.525v6.608H604.901z M613.295,57.954
	c-0.887,0-8.505,0.015-9.411,0.015s-1.429-0.568-1.429-1.213c0-0.645,0.491-1.167,1.475-1.167s8.355-0.016,9.35-0.016
	c0.998,0,1.444,0.568,1.444,1.198S614.186,57.954,613.295,57.954z"/>
<path fill="none" stroke="#000000" stroke-width="0.983" stroke-miterlimit="3.8637" d="M544.24,46.112v-6.146
	c2.762,0.01,5.027,1.187,6.77,2.755l-3.79,4.8C546.522,46.751,545.527,46.122,544.24,46.112z"/>
<path fill="none" stroke="#000000" stroke-width="0.983" stroke-miterlimit="3.8637" d="M541.267,47.46l-3.783-4.738
	c1.686-1.576,3.914-2.757,6.726-2.757c0.007,0,0.019,0.002,0.031,0.002v6.146c-0.012,0-0.023-0.002-0.031-0.002
	C542.957,46.11,541.974,46.713,541.267,47.46z"/>
<path fill="none" stroke="#000000" stroke-width="2.3591" stroke-miterlimit="3.8637" d="M706.217,67.515
	c-1.114,3.268-5.219,8.136-6.192,8.972"/>
<path fill="none" stroke="#000000" stroke-width="2.3591" stroke-miterlimit="3.8637" d="M382.81,67.338
	c0.873,2.73,4.485,8.371,5.334,9.308"/>
</svg>
